<svg width="218" height="50" viewBox="0 0 218 50" fill="none" xmlns="http://www.w3.org/2000/svg">
    <path fill-rule="evenodd" clip-rule="evenodd" d="M0 0H5.60284V19.2199C7.0922 14.6099 10.6383 11.7021 15.3191 11.7021C21.5603 11.7021 25.8156 16.5248 25.8156 23.1915V39.4326H20.2128V23.9716C20.2128 19.7872 17.0922 16.7376 13.1915 16.7376C8.7234 16.7376 5.60284 19.7872 5.60284 23.9716V39.3617H0V0ZM44.8935 11.6312C53.6169 11.6312 59.8581 18.7234 58.8652 27.6596H36.3829C37.163 31.9858 40.6382 35.0354 45.3191 35.0354C48.8652 35.0354 51.773 33.1915 53.3333 30.2128L58.0141 32.2695C55.6737 36.7376 51.0637 39.8581 45.1772 39.8581C37.0212 39.8581 30.7801 33.7589 30.7801 25.7447C30.7801 17.7305 36.8794 11.6312 44.8935 11.6312ZM53.2623 23.2624C52.3404 19.3617 49.2198 16.4539 44.8935 16.4539C40.7801 16.4539 37.5177 19.2908 36.5247 23.2624H53.2623ZM69.3616 28.0851V12.1986H63.7588V28.0851C63.7588 35.0355 69.007 39.8581 76.1701 39.8581C83.2623 39.8581 88.5106 35.1064 88.5106 28.0851V12.1986H82.9077V28.0851C82.9077 32.0567 79.9999 34.7518 76.1701 34.7518C72.1985 34.7518 69.3616 32.0567 69.3616 28.0851ZM94.539 12.1986H100.142V19.3617C102.057 12.5532 106.383 10.922 110.78 11.9858V17.305C104.823 15.6738 100.142 18.7943 100.142 23.9716V39.3617H94.539V12.1986ZM139.716 27.6596C140.709 18.7234 134.468 11.6312 125.745 11.6312C117.66 11.6312 111.56 17.7305 111.631 25.7447C111.631 33.7589 117.872 39.8581 126.028 39.8581C131.915 39.8581 136.525 36.7376 138.865 32.2695L134.184 30.2128C132.624 33.1915 129.716 35.0354 126.17 35.0354C121.489 35.0354 118.014 31.9858 117.234 27.6596H139.716ZM125.674 16.4539C130 16.4539 133.121 19.3617 134.043 23.2624H117.305C118.298 19.2908 121.56 16.4539 125.674 16.4539ZM150.638 39.3617H145.035V0H150.638V24.8936L162.128 12.1986H169.149L158.652 23.5461L171.206 39.3617H164.113L154.894 27.6596L150.638 32.1986V39.3617ZM199.574 29.7163V12.1986H193.972V20.1418C192.269 15.1064 188.369 11.7731 183.191 11.7731C176.17 11.7731 170.922 17.8723 170.922 25.8865C170.922 33.9007 176.17 40 183.475 40C188.298 40 192.269 37.0922 194.326 32.766C195.177 37.234 198.369 39.4326 204.184 39.4326H205.319V34.4681H204.184C200.922 34.4681 199.574 33.0496 199.574 29.7163ZM194.043 25.7447C194.043 30.8511 190.284 34.6809 185.106 34.6809C180.425 34.6809 176.667 30.8511 176.738 25.7447C176.738 20.5674 180.496 16.7376 185.106 16.7376C190.355 16.7376 194.043 20.5674 194.043 25.7447Z" fill="#0096FF"/>
    <path d="M213.617 32.7659C215.532 32.7659 217.092 34.3262 217.092 36.2411C217.092 38.156 215.532 39.7872 213.617 39.7872C211.702 39.7872 210.071 38.2269 210.071 36.2411C210.071 34.3972 211.702 32.7659 213.617 32.7659ZM210.78 0H216.383V28.3688H210.78V0Z" fill="#FF660A"/>
</svg>
